M48
; DRILL file {KiCad 9.0.4} date 2025-10-07T10:37:43+0100
; FORMAT={-:-/ absolute / metric / decimal}
; #@! TF.CreationDate,2025-10-07T10:37:43+01:00
; #@! TF.GenerationSoftware,Kicad,Pcbnew,9.0.4
; #@! TF.FileFunction,Plated,1,2,PTH
FMAT,2
METRIC
; #@! TA.AperFunction,Plated,PTH,ViaDrill
T1C0.300
; #@! TA.AperFunction,Plated,PTH,ComponentDrill
T2C0.800
; #@! TA.AperFunction,Plated,PTH,ComponentDrill
T3C1.000
%
G90
G05
T1
X172.472Y-50.781
X181.198Y-93.008
X202.118Y-57.541
X202.158Y-58.982
X204.251Y-57.608
X205.786Y-83.738
X207.865Y-47.12
X213.534Y-87.478
X241.21Y-52.935
X244.198Y-48.706
X245.095Y-53.083
T2
X188.02Y-60.555
X188.02Y-63.095
X188.02Y-65.635
X188.02Y-68.175
X188.02Y-70.715
X188.02Y-73.255
X188.02Y-75.795
X188.02Y-78.335
X188.02Y-80.875
X188.02Y-83.415
X188.02Y-85.955
X188.02Y-88.495
X188.02Y-91.035
X188.02Y-93.575
X188.02Y-96.115
X188.02Y-98.655
X188.02Y-101.195
X188.02Y-103.735
X188.02Y-106.275
X188.02Y-108.815
X203.26Y-60.555
X203.26Y-63.095
X203.26Y-65.635
X203.26Y-68.175
X203.26Y-70.715
X203.26Y-73.255
X203.26Y-75.795
X203.26Y-78.335
X203.26Y-80.875
X203.26Y-83.415
X203.26Y-85.955
X203.26Y-88.495
X203.26Y-91.035
X203.26Y-93.575
X203.26Y-96.115
X203.26Y-98.655
X203.26Y-101.195
X203.26Y-103.735
X203.26Y-106.275
X203.26Y-108.815
T3
X128.7Y-58.13
X131.24Y-58.13
X133.78Y-58.13
X136.32Y-58.13
X149.7Y-51.13
X152.24Y-51.13
X154.78Y-51.13
X157.32Y-51.13
X170.23Y-49.0
X172.77Y-49.0
X175.31Y-49.0
X177.85Y-49.0
X178.96Y-118.5
X181.5Y-118.5
X184.04Y-118.5
X186.58Y-118.5
X191.23Y-49.0
X193.77Y-49.0
X196.31Y-49.0
X198.85Y-49.0
X213.46Y-49.0
X216.0Y-49.0
X218.54Y-49.0
X221.08Y-49.0
X233.47Y-51.13
X236.01Y-51.13
X238.55Y-51.13
X241.09Y-51.13
X253.7Y-58.13
X256.24Y-58.13
X258.78Y-58.13
X261.32Y-58.13
M30
